<?xml version="1.0" encoding="UTF-8"?>
<svg width="1280px" height="1169px" viewBox="0 0 1280 1169" version="1.1" xmlns="http://www.w3.org/2000/svg" xmlns:xlink="http://www.w3.org/1999/xlink">
    <!-- Generator: Sketch 43.2 (39069) - http://www.bohemiancoding.com/sketch -->
    <title>Artboard 3 Copy 14</title>
    <desc>Created with Sketch.</desc>
    <defs>
        <rect id="path-1" x="0" y="0" width="1280" height="1574"></rect>
        <radialGradient cx="52.4476031%" cy="74.3509393%" fx="52.4476031%" fy="74.3509393%" r="19.8451277%" gradientTransform="translate(0.524476,0.743509),scale(0.740115,1.000000),rotate(-80.906412),scale(1.000000,2.566518),translate(-0.524476,-0.743509)" id="radialGradient-3">
            <stop stop-color="#ACA8A5" offset="0%"></stop>
            <stop stop-color="#787471" offset="100%"></stop>
        </radialGradient>
        <radialGradient cx="41.5843506%" cy="15.2849327%" fx="41.5843506%" fy="15.2849327%" r="69.014066%" gradientTransform="translate(0.415844,0.152849),scale(0.212784,1.000000),rotate(-85.732326),scale(1.000000,3.495001),translate(-0.415844,-0.152849)" id="radialGradient-4">
            <stop stop-color="#ACA8A5" offset="0%"></stop>
            <stop stop-color="#787471" offset="100%"></stop>
        </radialGradient>
    </defs>
    <g id="Page-1" stroke="none" stroke-width="1" fill="none" fill-rule="evenodd">
        <g id="Artboard-3-Copy-14">
            <g id="graphics" transform="translate(0.000000, -405.000000)">
                <mask id="mask-2" fill="white">
                    <use xlink:href="#path-1"></use>
                </mask>
                <g id="Mask" transform="translate(640.000000, 787.000000) scale(1, -1) translate(-640.000000, -787.000000) "></g>
                <path d="M615.48635,563.708133 C559.967743,565.137129 510.280664,572.713306 463.675752,586.129985 C436.465911,593.963187 410.695801,603.634739 384.086654,615.591921 C364.536568,624.377018 349.184673,632.056514 319.485718,647.492618 C318.992382,647.749031 316.280474,649.158728 315.507047,649.560692 C283.391509,666.25173 267.732748,673.939183 248.994307,681.76584 C225.81923,691.445589 203.625223,698.45254 179.589203,703.315899 C153.524516,708.58973 125.094393,711.348334 92.8291782,711.348334 C26.4766745,711.348334 -35.2658582,701.445261 -105.308067,681.50736 L-154.314602,853.668214 C-69.3112228,877.864894 8.51908159,890.348334 92.8291782,890.348334 C136.836686,890.348334 177.15113,886.436582 215.088022,878.760573 C251.112794,871.471456 284.418028,860.956538 317.982941,846.93717 C342.692467,836.616515 361.686373,827.291719 398.053985,808.3908 C398.835077,807.984851 401.549884,806.573648 402.036908,806.320516 C454.591272,779.005256 479.30157,767.901348 513.195346,758.143966 C550.004763,747.547226 590.619708,742.097203 639.534613,742.470012 C739.068027,750.702199 823.945207,789.387907 883.636885,849.800864 C943.623446,910.512268 972.904141,988.334275 965.230711,1064.32058 C956.905,1146.76611 916.530677,1219.08214 848.63321,1269.15407 C770.506803,1326.76947 658.280767,1354.17126 516.885764,1342.27599 C420.815792,1334.19381 320.687761,1303.47404 220.844599,1253.62327 C132.71736,1209.62215 47.4791607,1151.93739 -26.9786561,1088.02291 L-143.568602,1223.84553 C-58.3152166,1297.02692 39.0930489,1362.94774 140.884241,1413.77114 C259.903322,1473.19627 381.571153,1510.52456 501.879861,1520.64589 C684.459245,1536.00593 839.804306,1498.07594 954.873887,1413.21627 C1063.91756,1332.8005 1129.97756,1214.47785 1143.32493,1082.30531 C1156.50175,951.821531 1107.56423,821.755777 1010.96682,723.991139 C926.302546,638.303828 810.980083,582.889662 680.031168,566.733608 L680.139676,564.688171 C669.042946,564.099498 658.17881,563.723241 647.530089,563.557482 C636.950412,562.791329 626.28022,562.276696 615.526999,562.018063 L615.48635,563.708133 Z" id="Combined-Shape" fill="url(#radialGradient-3)" fill-rule="nonzero" mask="url(#mask-2)"></path>
                <path d="M-141.084266,601.560789 C-90.2396616,601.560789 -41.5393613,607.855588 10.3106771,620.251375 C51.6707764,630.139332 87.4654588,641.418075 155.614927,664.976084 C157.165117,665.511955 158.781085,666.070823 160.751173,666.752357 C161.82582,667.124122 165.484325,668.389894 165.906225,668.535855 C245.203549,695.969639 283.775197,708.225894 334.092516,720.379653 C402.043336,736.792648 467.641935,745.348334 536.829178,745.348334 C595.218988,745.348334 646.785375,739.164397 695.929061,727.00151 C735.478581,717.213144 769.835195,704.881251 816.073129,685.305683 C824.671902,681.665255 855.175965,668.519906 861.595826,665.790824 C913.025242,643.928188 949.35647,631.166683 994.057052,620.83264 C1051.55806,607.539348 1117.17117,600.5 1197.74219,600.5 C1256.716,600.5 1311.78118,602.985868 1364.77286,607.772117 L1380.87473,429.497806 C1322.53385,424.228414 1262.09597,421.5 1197.74219,421.5 C1103.97903,421.5 1024.87629,429.986593 953.738588,446.432464 C897.232933,459.495646 851.781224,475.460761 791.567723,501.05751 C784.559654,504.036639 754.218,517.112 746.28716,520.469648 C707.979574,536.687777 681.683504,546.126434 652.924727,553.244129 C617.96678,561.896097 580.840626,566.348334 536.829178,566.348334 C482.529932,566.348334 430.894672,559.613814 376.119964,546.383407 C333.110104,535.994708 298.450553,524.981533 224.429887,499.373268 C224.010749,499.228262 220.350076,497.96174 219.271781,497.588713 C217.289686,496.903026 215.661389,496.339894 214.096349,495.798889 C140.679115,470.419911 100.618782,457.797081 51.9313243,446.157372 C-12.9660835,430.642351 -75.489845,422.560789 -141.084266,422.560789 L-141.084266,601.560789 Z" id="Path-2-Copy" fill="url(#radialGradient-4)" fill-rule="nonzero" mask="url(#mask-2)"></path>
            </g>
        </g>
    </g>
</svg>