<svg xmlns="http://www.w3.org/2000/svg" xmlns:xlink="http://www.w3.org/1999/xlink" version="1.1" x="0px" y="0px" viewBox="0 0 100 125" style="enable-background:new 0 0 100 100;" xml:space="preserve"><g><path d="M10.7,75c0,6.6,5.4,12,12,12h55.9c6.6,0,12-5.4,12-12V44.4c0-1.1-0.9-2-2-2h-59l13.1-3.1c0.2,0,0.5-0.1,0.7-0.2L64,34.3   c0.2,0,0.5-0.1,0.7-0.2L87,28.8c0.5-0.1,1-0.4,1.2-0.9c0.3-0.5,0.4-1,0.2-1.5l-1-4.2c-1.4-5.8-6.8-9.6-12.6-9.2   c-0.4-0.1-0.8,0-1.2,0.2c-0.2,0-0.4,0.1-0.7,0.1L52.9,18c0,0-0.1,0-0.1,0l-21.2,5c0,0,0,0-0.1,0l-12.9,3.1   c-3.1,0.7-5.8,2.6-7.4,5.4c-1.7,2.7-2.2,5.9-1.5,9.1l0.9,4V75z M42.2,46.4l11,11H37l-11-11H42.2z M64,46.4l11,11H58.8l-11-11H64z    M31.3,57.3H14.7v-11h5.7L31.3,57.3z M78.6,83H22.7c-4.4,0-8-3.6-8-8V61.3h71.9V75C86.6,79.5,83,83,78.6,83z M86.6,57.3h-5.9   l-11-11h16.9V57.3z M49.1,23.1l-7.7,12.4l-15.7,3.7l7.7-12.4L49.1,23.1z M70.3,18l-7.7,12.4l-15.7,3.7l7.7-12.4L70.3,18z    M83.6,23.1l0.5,2.3l-16,3.8L75.7,17c0,0,0.1,0,0.1,0C79.4,16.9,82.7,19.4,83.6,23.1z M14.6,33.6c1.1-1.8,2.9-3.1,5-3.6l8.3-2   l-7.7,12.4l-6,1.4l-0.5-2.3C13.1,37.6,13.5,35.4,14.6,33.6z"/></g></svg>
